<?xml version="1.0" encoding="UTF-8" standalone="no"?>
<!-- Created with Inkscape (http://www.inkscape.org/) -->

<svg
   width="91.317375mm"
   height="85.256523mm"
   viewBox="0 0 91.317375 85.256523"
   version="1.1"
   id="svg1"
   xml:space="preserve"
   xmlns="http://www.w3.org/2000/svg"
   xmlns:svg="http://www.w3.org/2000/svg"><defs
     id="defs1" /><g
     id="layer1"
     transform="translate(-76.663782,-177.01916)"><g
       id="g20"><path
         id="rect1"
         style="fill:none;fill-opacity:1;stroke:#1d9371;stroke-width:6;stroke-dasharray:none;stroke-opacity:1"
         d="m 152.40509,227.95024 5.27257,-5.27257 a 25,25 0 0 0 3.6e-4,-35.355 25,25 0 0 0 -35.35537,0 25,25 0 0 0 -35.355376,0 v 0 a 25,25 0 0 0 5e-6,35.35537 l 35.355001,35.35501 13.11218,-13.11218" /><g
         id="g6"
         transform="translate(2.787544,2.667414)"><path
           id="path4-0"
           style="fill:#1d9371;fill-opacity:1;stroke-width:6.00001"
           d="m 151.01199,200.24406 a 12,12 0 0 1 -12,12 12,12 0 0 1 -12,-12 12,12 0 0 1 12,-12 12,12 0 0 1 12,12 z" /><path
           id="path4-0-1"
           style="fill:#1d9371;fill-opacity:1;stroke-width:6.00001"
           d="m 122.32246,215.94574 a 12,12 0 0 1 -12,12 12,12 0 0 1 -12.000004,-12 12,12 0 0 1 12.000004,-12 12,12 0 0 1 12,12 z" /><path
           id="path10"
           style="fill:#1d9371;fill-opacity:1;stroke-width:0"
           d="m -77.418518,267.41541 a 12,12 0 0 1 12,-12 12,12 0 0 1 12,12 h -12 z"
           transform="rotate(-45,-6.3790196,2.7619641)" /><g
           id="g5"
           transform="translate(99.522806,23.895261)"><path
             id="rect4"
             style="fill:#1d9371;fill-opacity:1;stroke-width:6.00001"
             d="m -86.382576,168.84201 h 40.903999 v 8 h -40.903999 z"
             transform="rotate(-28.75)" /><path
             id="path11"
             style="fill:#1d9371;fill-opacity:1;stroke-width:6.00001"
             d="m 98.365515,-159.9097 1.82e-4,-8.00016 32.969223,4.5e-4 2.33174,7.99986 z"
             transform="matrix(0.87672676,0.48098877,0.48098877,-0.87672676,0,0)" /></g></g></g></g></svg>
